<svg xmlns="http://www.w3.org/2000/svg" width="11.786" height="14.948" viewBox="0 0 11.786 14.948">
  <g id="badge" transform="translate(-54.154)">
    <g id="Group_605" data-name="Group 605" transform="translate(54.154)">
      <g id="Group_604" data-name="Group 604" transform="translate(0)">
        <path id="Path_153" data-name="Path 153" d="M60.047,0a5.891,5.891,0,0,0-3.306,10.769v3.748a.431.431,0,0,0,.608.393l2.7-1.214,2.7,1.214a.431.431,0,0,0,.608-.393V10.769A5.891,5.891,0,0,0,60.047,0ZM62.49,13.85l-2.266-1.02a.431.431,0,0,0-.354,0L57.6,13.85V11.256a5.864,5.864,0,0,0,.666.255l.039.012.087.026.065.019.071.019.083.021.059.014.1.022.05.011.105.021.043.008.112.02.039.006.117.017.036.005.119.014.035,0,.119.011.036,0,.118.008.038,0,.12,0h.036l.156,0,.156,0h.036l.12,0,.038,0,.118-.008.036,0,.119-.011.035,0,.119-.014.036-.005.117-.017.039-.006.112-.02.043-.008.105-.021.05-.011.1-.022.059-.014.083-.021.071-.019.065-.019.087-.026.039-.012a5.863,5.863,0,0,0,.666-.255V13.85Zm-.8-3.2-.052.018-.079.026-.092.028-.066.019-.123.033-.046.011-.121.028-.031.007-.158.03-.016,0-.143.022-.032,0-.153.019H60.57l-.161.014-.035,0-.126.007-.043,0-.158,0-.158,0-.043,0-.126-.007-.035,0-.161-.014h-.006l-.153-.019-.032,0-.143-.022-.016,0-.158-.03-.031-.007-.121-.028-.046-.011-.123-.033-.066-.019-.093-.028-.079-.026-.052-.018a5.03,5.03,0,1,1,3.283,0Z" transform="translate(-54.154)" fill="#556381"/>
      </g>
    </g>
    <g id="Group_607" data-name="Group 607" transform="translate(56.628 2.012)">
      <g id="Group_606" data-name="Group 606" transform="translate(0)">
        <path id="Path_154" data-name="Path 154" d="M144.883,72.8l.81-1.522a.431.431,0,0,0-.366-.633l-1.723-.06-.913-1.462a.431.431,0,0,0-.731,0l-.913,1.462-1.723.06a.431.431,0,0,0-.366.633l.81,1.522-.81,1.522a.431.431,0,0,0,.366.633l1.723.06.913,1.462a.431.431,0,0,0,.731,0l.913-1.462,1.723-.06a.431.431,0,0,0,.366-.633Zm-1.538,1.361a.431.431,0,0,0-.351.2l-.669,1.071-.669-1.071a.431.431,0,0,0-.351-.2l-1.262-.044.593-1.115a.431.431,0,0,0,0-.405l-.593-1.115,1.262-.044a.431.431,0,0,0,.351-.2l.669-1.071.669,1.071a.431.431,0,0,0,.351.2l1.262.044-.593,1.115a.431.431,0,0,0,0,.405l.593,1.115Z" transform="translate(-138.907 -68.924)" fill="#556381"/>
      </g>
    </g>
  </g>
</svg>
