<svg xmlns="http://www.w3.org/2000/svg" width="15" height="15" viewBox="0 0 15 15">
  <g id="people_2_" data-name="people (2)" transform="translate(0)">
    <path id="Path_139" data-name="Path 139" d="M.439,305H4.924a.439.439,0,0,0,.439-.439v-.49a2.684,2.684,0,0,0-1.4-2.357,1.758,1.758,0,1,0-2.558,0A2.684,2.684,0,0,0,0,304.068v.49A.439.439,0,0,0,.439,305Zm1.363-4.49a.879.879,0,1,1,.879.879A.88.88,0,0,1,1.8,300.508Zm.879,1.758a1.8,1.8,0,0,1,1.8,1.853H.879a1.805,1.805,0,0,1,1.8-1.853Z" transform="translate(0 -289.998)" fill="#556381"/>
    <path id="Path_140" data-name="Path 140" d="M332.885,301.712a1.758,1.758,0,1,0-2.558,0,2.684,2.684,0,0,0-1.4,2.357v.49a.439.439,0,0,0,.439.439h4.485a.439.439,0,0,0,.439-.439v-.49A2.684,2.684,0,0,0,332.885,301.712Zm-2.158-1.2a.879.879,0,1,1,.879.879A.88.88,0,0,1,330.727,300.508Zm2.682,3.611H329.8a1.8,1.8,0,1,1,3.606,0Z" transform="translate(-319.288 -289.998)" fill="#556381"/>
    <path id="Path_141" data-name="Path 141" d="M169.826,5.808v-.49a2.684,2.684,0,0,0-1.4-2.357,1.758,1.758,0,1,0-2.558,0,2.684,2.684,0,0,0-1.4,2.357v.49a.439.439,0,0,0,.439.439h4.485A.439.439,0,0,0,169.826,5.808Zm-3.561-4.05a.879.879,0,1,1,.879.879A.88.88,0,0,1,166.265,1.758Zm2.682,3.611h-3.606a1.8,1.8,0,1,1,3.606,0Z" transform="translate(-159.644)" fill="#556381"/>
    <path id="Path_142" data-name="Path 142" d="M180.349,378.317a5.839,5.839,0,0,1-3.54.019.439.439,0,1,0-.265.838,6.718,6.718,0,0,0,4.079-.022.439.439,0,0,0-.274-.835Z" transform="translate(-171.074 -367.212)" fill="#556381"/>
    <path id="Path_143" data-name="Path 143" d="M53.628,120.233a6.718,6.718,0,0,0-1.927,3.6.439.439,0,1,0,.865.157,5.839,5.839,0,0,1,1.673-3.12.439.439,0,1,0-.61-.633Z" transform="translate(-50.179 -116.591)" fill="#556381"/>
    <path id="Path_144" data-name="Path 144" d="M369.6,120.233a.439.439,0,1,0-.61.633,5.84,5.84,0,0,1,1.673,3.12.439.439,0,0,0,.865-.157,6.718,6.718,0,0,0-1.927-3.6Z" transform="translate(-358.053 -116.591)" fill="#556381"/>
  </g>
</svg>
