<svg xmlns="http://www.w3.org/2000/svg" width="13.567" height="9.734" viewBox="0 0 13.567 9.734">
  <g id="book_1_" data-name="book (1)" transform="translate(0 -58.303)">
    <g id="Group_589" data-name="Group 589" transform="translate(0 58.303)">
      <path id="Path_145" data-name="Path 145" d="M13.3,59.113H12.41v-.305a.263.263,0,0,0-.189-.263,7.408,7.408,0,0,0-1.9-.242A4.891,4.891,0,0,0,6.78,59.618,4.839,4.839,0,0,0,3.235,58.3a7.408,7.408,0,0,0-1.9.242.263.263,0,0,0-.189.263v.3H.263A.263.263,0,0,0,0,59.374v8.4A.262.262,0,0,0,.392,68a9.272,9.272,0,0,1,6.327-.526h.063a.262.262,0,0,0,.063,0A9.115,9.115,0,0,1,13.173,68a.263.263,0,0,0,.394-.226v-8.4A.263.263,0,0,0,13.3,59.113ZM.526,67.355V59.639h.629v6.6a.263.263,0,0,0,.3.263A11.508,11.508,0,0,1,3.1,66.366a6.821,6.821,0,0,1,2.246.339A9.668,9.668,0,0,0,.526,67.355ZM3.1,65.843a11.574,11.574,0,0,0-1.431.092V59.016a7.253,7.253,0,0,1,1.559-.174,4.294,4.294,0,0,1,3.282,1.289l.008,6.551A6.147,6.147,0,0,0,3.1,65.843Zm3.945-5.712a4.333,4.333,0,0,1,3.282-1.289,7.284,7.284,0,0,1,1.559.174v6.919a11.57,11.57,0,0,0-1.423-.095,6.2,6.2,0,0,0-3.419.839Zm5.993,7.224a9.67,9.67,0,0,0-4.831-.65,6.838,6.838,0,0,1,2.256-.339,11.5,11.5,0,0,1,1.654.129.263.263,0,0,0,.3-.263V59.639h.629Z" transform="translate(0 -58.303)" fill="#556381"/>
    </g>
  </g>
</svg>
