<svg xmlns="http://www.w3.org/2000/svg" width="14.814" height="12.836" viewBox="0 0 14.814 12.836">
  <g id="layers" transform="translate(0 -34.184)">
    <g id="Group_530" data-name="Group 530" transform="translate(0 34.184)">
      <g id="Group_529" data-name="Group 529" transform="translate(0 0)">
        <path id="Path_124" data-name="Path 124" d="M14.469,37.159,7.644,34.231a.582.582,0,0,0-.459,0L.36,37.159a.582.582,0,0,0,0,1.07l6.825,2.908a.582.582,0,0,0,.456,0l6.825-2.908a.582.582,0,0,0,0-1.069ZM7.415,39.969,2.069,37.691,7.415,35.4l5.345,2.293Z" transform="translate(-0.008 -34.184)" fill="#fff"/>
      </g>
    </g>
    <g id="Group_532" data-name="Group 532" transform="translate(0 42.928)">
      <g id="Group_531" data-name="Group 531" transform="translate(0)">
        <path id="Path_125" data-name="Path 125" d="M14.766,336.757a.582.582,0,0,0-.764-.305l-6.6,2.829-6.6-2.829a.582.582,0,1,0-.459,1.069l6.825,2.928a.583.583,0,0,0,.459,0l6.825-2.928A.582.582,0,0,0,14.766,336.757Z" transform="translate(0 -336.404)" fill="#fff"/>
      </g>
    </g>
    <g id="Group_534" data-name="Group 534" transform="translate(0 40.02)">
      <g id="Group_533" data-name="Group 533" transform="translate(0 0)">
        <path id="Path_126" data-name="Path 126" d="M14.774,236.242a.582.582,0,0,0-.763-.307l-6.6,2.811-6.6-2.811a.582.582,0,0,0-.456,1.07l6.825,2.908a.582.582,0,0,0,.456,0l6.825-2.908A.582.582,0,0,0,14.774,236.242Z" transform="translate(-0.007 -235.889)" fill="#fff"/>
      </g>
    </g>
  </g>
</svg>
