<svg id="edit_6_" data-name="edit (6)" xmlns="http://www.w3.org/2000/svg" width="12.853" height="12.177" viewBox="0 0 12.853 12.177">
  <g id="Group_156" data-name="Group 156" transform="translate(0 1)">
    <g id="Group_155" data-name="Group 155">
      <path id="Path_52" data-name="Path 52" d="M9.555,39.3a.423.423,0,0,0-.415.43v4.3a.423.423,0,0,1-.415.43H1.246a.423.423,0,0,1-.415-.43v-8.6A.423.423,0,0,1,1.246,35H6.232a.43.43,0,0,0,0-.86H1.246A1.269,1.269,0,0,0,0,35.427v8.6a1.269,1.269,0,0,0,1.246,1.29H8.724a1.269,1.269,0,0,0,1.246-1.29v-4.3A.423.423,0,0,0,9.555,39.3Z" transform="translate(0 -34.137)" fill="#47526c"/>
    </g>
  </g>
  <g id="Group_158" data-name="Group 158" transform="translate(4 0)">
    <g id="Group_157" data-name="Group 157" transform="translate(0 0)">
      <path id="Path_53" data-name="Path 53" d="M110.811.466a1.515,1.515,0,0,0-2.179,0l-5.3,5.428a.418.418,0,0,0-.1.161l-.8,2.473a.414.414,0,0,0,.255.521.394.394,0,0,0,.127.021.4.4,0,0,0,.127-.021l2.415-.824a.4.4,0,0,0,.157-.1l5.3-5.429A1.6,1.6,0,0,0,110.811.466Z" transform="translate(-102.409 -0.004)" fill="#47526c"/>
    </g>
  </g>
</svg>
