<svg xmlns="http://www.w3.org/2000/svg" width="9.693" height="12.697" viewBox="0 0 9.693 12.697">
  <g id="invoice_2_" data-name="invoice (2)" transform="translate(-50.529)">
    <g id="Group_597" data-name="Group 597" transform="translate(50.529)">
      <g id="Group_596" data-name="Group 596">
        <path id="Path_149" data-name="Path 149" d="M59.874.328h0a.585.585,0,0,0-.637.1l-.825.731-1.123-1a.594.594,0,0,0-.793,0l-1.122,1-1.122-1a.594.594,0,0,0-.793,0l-1.123,1L51.511.425a.59.59,0,0,0-.983.445V11.827a.591.591,0,0,0,.984.445l.825-.731,1.123,1a.594.594,0,0,0,.793,0l1.122-1,1.122,1a.594.594,0,0,0,.793,0l1.123-1,.826.731a.59.59,0,0,0,.983-.445V.871A.585.585,0,0,0,59.874.328ZM58.805,11.1a.594.594,0,0,0-.79,0l-1.123,1-1.122-1a.594.594,0,0,0-.793,0l-1.122,1-1.123-1a.591.591,0,0,0-.787,0l-.823.73V10.241l0-9.371.824.73a.594.594,0,0,0,.79,0l1.123-1,1.122,1a.594.594,0,0,0,.793,0l1.122-1,1.123,1a.591.591,0,0,0,.787,0l.823-.731V8.4l0,3.424Z" transform="translate(-50.529)" fill="#556381"/>
      </g>
    </g>
    <g id="Group_599" data-name="Group 599" transform="translate(52.259 6.051)">
      <g id="Group_598" data-name="Group 598" transform="translate(0)">
        <path id="Path_150" data-name="Path 150" d="M114.67,203.527h-5.637a.3.3,0,1,0,0,.595h5.637a.3.3,0,1,0,0-.595Z" transform="translate(-108.736 -203.527)" fill="#556381"/>
      </g>
    </g>
    <g id="Group_601" data-name="Group 601" transform="translate(52.259 4.267)">
      <g id="Group_600" data-name="Group 600" transform="translate(0)">
        <path id="Path_151" data-name="Path 151" d="M111.994,143.527h-2.961a.3.3,0,0,0,0,.595h2.961a.3.3,0,1,0,0-.595Z" transform="translate(-108.736 -143.527)" fill="#556381"/>
      </g>
    </g>
    <g id="Group_603" data-name="Group 603" transform="translate(52.259 7.835)">
      <g id="Group_602" data-name="Group 602" transform="translate(0)">
        <path id="Path_152" data-name="Path 152" d="M114.67,263.527h-5.637a.3.3,0,1,0,0,.595h5.637a.3.3,0,1,0,0-.595Z" transform="translate(-108.736 -263.527)" fill="#556381"/>
      </g>
    </g>
  </g>
</svg>
