<svg id="bell" xmlns="http://www.w3.org/2000/svg" width="13.914" height="14.799" viewBox="0 0 13.914 14.799">
  <g id="Group_647" data-name="Group 647">
    <path id="Path_81" data-name="Path 81" d="M135.775,418.932a2.446,2.446,0,0,1-2.443-2.443.489.489,0,1,1,.977,0,1.466,1.466,0,1,0,2.932,0,.489.489,0,1,1,.977,0A2.446,2.446,0,0,1,135.775,418.932Zm0,0" transform="translate(-128.818 -404.133)" fill="#47526c"/>
    <path id="Path_82" data-name="Path 82" d="M12.7,76.667H1.217A1.235,1.235,0,0,1,.426,74.5a.479.479,0,0,1,.056-.042,4.753,4.753,0,0,0,1.606-3.568V68.926A4.9,4.9,0,0,1,6.957,64a2.074,2.074,0,0,1,.343.021.527.527,0,0,1-.171,1.041,1.081,1.081,0,0,0-.172-.006,3.853,3.853,0,0,0-3.826,3.87v1.963A5.816,5.816,0,0,1,1.111,75.3c-.01.009-.019.016-.031.024a.177.177,0,0,0,.137.285H12.7a.177.177,0,0,0,.174-.176.169.169,0,0,0-.038-.109L12.8,75.3a5.814,5.814,0,0,1-2.02-4.413v-.767a.522.522,0,1,1,1.044,0v.767a4.755,4.755,0,0,0,1.608,3.57.507.507,0,0,1,.054.041,1.234,1.234,0,0,1-.792,2.167Zm0,0" transform="translate(0 -63.823)" fill="#47526c"/>
  </g>
  <circle id="Ellipse_7" data-name="Ellipse 7" cx="1.777" cy="1.777" r="1.777" transform="translate(9.769)" fill="#c12f2f"/>
</svg>
