<svg xmlns="http://www.w3.org/2000/svg" width="15.433" height="12.797" viewBox="0 0 15.433 12.797">
  <g id="group_4_" data-name="group (4)" transform="translate(0 -43.729)">
    <g id="Group_536" data-name="Group 536" transform="translate(0 49.334)">
      <g id="Group_535" data-name="Group 535">
        <path id="Path_127" data-name="Path 127" d="M13.172,230.84H11.662a2.255,2.255,0,0,0-.594.08,2.263,2.263,0,0,0-2.016-1.239H6.381a2.263,2.263,0,0,0-2.016,1.239,2.255,2.255,0,0,0-.594-.08H2.261A2.263,2.263,0,0,0,0,233.1v2.415a1.358,1.358,0,0,0,1.356,1.356h12.72a1.358,1.358,0,0,0,1.356-1.356V233.1A2.263,2.263,0,0,0,13.172,230.84Zm-9.052,1.1v4.027H1.356a.453.453,0,0,1-.452-.452V233.1a1.358,1.358,0,0,1,1.356-1.356H3.771a1.353,1.353,0,0,1,.355.047C4.123,231.841,4.121,231.891,4.121,231.941Zm6.287,4.027H5.025v-4.027a1.358,1.358,0,0,1,1.356-1.356h2.67a1.358,1.358,0,0,1,1.356,1.356Zm4.121-.452a.453.453,0,0,1-.452.452H11.312v-4.027c0-.05,0-.1-.005-.149a1.354,1.354,0,0,1,.355-.047h1.511a1.358,1.358,0,0,1,1.356,1.356Z" transform="translate(0 -229.68)" fill="#556381"/>
      </g>
    </g>
    <g id="Group_538" data-name="Group 538" transform="translate(1.007 46.224)">
      <g id="Group_537" data-name="Group 537">
        <path id="Path_128" data-name="Path 128" d="M35.423,126.5a2.009,2.009,0,1,0,2.009,2.009A2.011,2.011,0,0,0,35.423,126.5Zm0,3.114a1.1,1.1,0,1,1,1.1-1.1A1.106,1.106,0,0,1,35.423,129.617Z" transform="translate(-33.414 -126.504)" fill="#556381"/>
      </g>
    </g>
    <g id="Group_540" data-name="Group 540" transform="translate(5.033 43.729)">
      <g id="Group_539" data-name="Group 539">
        <path id="Path_129" data-name="Path 129" d="M169.646,43.729a2.684,2.684,0,1,0,2.684,2.684A2.687,2.687,0,0,0,169.646,43.729Zm0,4.463a1.78,1.78,0,1,1,1.78-1.78A1.782,1.782,0,0,1,169.646,48.192Z" transform="translate(-166.962 -43.729)" fill="#556381"/>
      </g>
    </g>
    <g id="Group_542" data-name="Group 542" transform="translate(10.408 46.224)">
      <g id="Group_541" data-name="Group 541">
        <path id="Path_130" data-name="Path 130" d="M347.3,126.5a2.009,2.009,0,1,0,2.009,2.009A2.011,2.011,0,0,0,347.3,126.5Zm0,3.114a1.1,1.1,0,1,1,1.1-1.1A1.106,1.106,0,0,1,347.3,129.617Z" transform="translate(-345.294 -126.504)" fill="#556381"/>
      </g>
    </g>
  </g>
</svg>
