<svg xmlns="http://www.w3.org/2000/svg" width="14.714" height="13.403" viewBox="0 0 14.714 13.403">
  <path id="discuss-issue" d="M11.258,19.334a1.22,1.22,0,0,1-.561.916c-.09.075-.257.213-.256.264a.359.359,0,0,1-.362.362h0a.36.36,0,0,1-.365-.356,1.092,1.092,0,0,1,.517-.826c.182-.153.3-.26.3-.358a.361.361,0,0,0-.722,0,.365.365,0,0,1-.73,0,1.091,1.091,0,0,1,2.181,0Zm-1.173,1.879a.358.358,0,0,0-.357.365v0a.357.357,0,0,0,.357.363.366.366,0,0,0,0-.731ZM2.732,23.754a.365.365,0,1,0,0,.73h.03a.365.365,0,1,0,0-.73Zm1.268,0a.365.365,0,0,0,0,.73h.03a.365.365,0,1,0,0-.73Zm10.714-5.827v4.106a1.754,1.754,0,0,1-1.752,1.761H8.231l-.232,0c-.067,0-.142,0-.171,0-.031.02-.105.089-.177.155l-.1.087-1.339,1.22a.373.373,0,0,1-.622-.269V21.119H1.772A1.045,1.045,0,0,0,.73,22.156v4.106A1.029,1.029,0,0,0,1.772,27.28H7.057a.366.366,0,0,1,.243.1l1.09,1.005V24.922a.365.365,0,0,1,.73,0v4.294a.36.36,0,0,1-.215.332.35.35,0,0,1-.145.029.369.369,0,0,1-.246-.1l-1.6-1.468H1.772A1.76,1.76,0,0,1,0,26.262V22.156A1.776,1.776,0,0,1,1.772,20.39H5.594V17.927a1.77,1.77,0,0,1,1.778-1.753h5.59A1.747,1.747,0,0,1,14.714,17.927Zm-.73,0A1.016,1.016,0,0,0,12.962,16.9H7.372a1.039,1.039,0,0,0-1.049,1.024V24.16l.733-.663c.034-.031.072-.059.1-.085a.921.921,0,0,1,.858-.349l.217,0h4.731a1.023,1.023,0,0,0,1.022-1.032V17.927Z" transform="translate(0 -16.174)" fill="#556381"/>
</svg>
