<svg xmlns="http://www.w3.org/2000/svg" width="14.285" height="11.915" viewBox="0 0 14.285 11.915">
  <path id="mortarboard" d="M14.007,45.654a.418.418,0,0,0,0-.789L7.282,42.493a.418.418,0,0,0-.278,0L.279,44.865a.418.418,0,0,0,0,.789l2.664.947v2.73c0,.451.47.832,1.4,1.132a9.357,9.357,0,0,0,2.8.407,9.357,9.357,0,0,0,2.8-.407c.927-.3,1.4-.682,1.4-1.132V46.6l1.1-.391v3.783a1.259,1.259,0,0,0,0,2.374v1.6a.419.419,0,0,0,.837,0v-1.6a1.259,1.259,0,0,0,0-2.374V45.913ZM12.862,51.6a.422.422,0,1,1,.422-.422A.422.422,0,0,1,12.862,51.6ZM7.143,43.331l5.471,1.93L7.143,47.206,1.672,45.261Zm3.364,5.937a2.585,2.585,0,0,1-1.015.459,8.824,8.824,0,0,1-2.348.306,8.824,8.824,0,0,1-2.348-.306,2.585,2.585,0,0,1-1.015-.459V46.9L7,48.045a.418.418,0,0,0,.28,0L10.506,46.9v2.369Z" transform="translate(0 -42.469)" fill="#556381"/>
</svg>
