<svg xmlns="http://www.w3.org/2000/svg" width="13.964" height="18.475" viewBox="0 0 13.964 18.475">
  <g id="Group_22" data-name="Group 22" transform="translate(-372 -325)">
    <g id="Group_4" data-name="Group 4" transform="translate(372 332.089)">
      <g id="Group_3" data-name="Group 3" transform="translate(0)">
        <path id="Path_1" data-name="Path 1" d="M75.4,196.465H63.586a1.075,1.075,0,0,0-1.074,1.074v9.237a1.075,1.075,0,0,0,1.074,1.074H75.4a1.075,1.075,0,0,0,1.074-1.074v-9.237A1.075,1.075,0,0,0,75.4,196.465Zm-.215,10.1H63.8v-8.808H75.187v8.808Z" transform="translate(-62.512 -196.465)" fill="#504f4f"/>
      </g>
    </g>
    <g id="Group_6" data-name="Group 6" transform="translate(373.719 325)">
      <g id="Group_5" data-name="Group 5">
        <path id="Path_2" data-name="Path 2" d="M115.4,0a5.291,5.291,0,0,0-5.263,5.306V7.519h1.289V5.306a3.975,3.975,0,1,1,7.949,0V7.519h1.289V5.306A5.291,5.291,0,0,0,115.4,0Z" transform="translate(-110.14)" fill="#504f4f"/>
      </g>
    </g>
    <g id="Group_8" data-name="Group 8" transform="translate(378.23 337.03)">
      <g id="Group_7" data-name="Group 7" transform="translate(0)">
        <path id="Path_3" data-name="Path 3" d="M235.807,333.395a.644.644,0,0,0-.644.644v1.5a.644.644,0,0,0,1.289,0v-1.5A.644.644,0,0,0,235.807,333.395Z" transform="translate(-235.163 -333.395)" fill="#504f4f"/>
      </g>
    </g>
  </g>
</svg>
